<svg width="25" height="25" viewBox="0 0 25 25" fill="none" xmlns="http://www.w3.org/2000/svg">
<path d="M6.86861 19.8649C5.79404 19.8648 4.76038 19.4529 3.98033 18.7138C3.20028 17.9747 2.73317 16.9648 2.67513 15.8918C2.6171 14.8188 2.97254 13.7644 3.66832 12.9455C4.3641 12.1266 5.34729 11.6055 6.41558 11.4895C6.09947 10.2561 6.28626 8.94774 6.93485 7.85211C7.58343 6.75648 8.64069 5.96337 9.87404 5.64726C11.1074 5.33116 12.4158 5.51794 13.5114 6.16653C14.6071 6.81512 15.4002 7.87238 15.7163 9.10573C16.4499 9.00267 17.1969 9.05166 17.9107 9.24965C18.6246 9.44764 19.2901 9.79039 19.8658 10.2566C20.4415 10.7228 20.9152 11.3025 21.2573 11.9596C21.5994 12.6167 21.8026 13.3371 21.8543 14.0761C21.9061 14.8151 21.8052 15.5569 21.558 16.2552C21.3108 16.9536 20.9225 17.5936 20.4173 18.1355C19.9122 18.6773 19.3009 19.1095 18.6216 19.405C17.9423 19.7005 17.2094 19.8531 16.4686 19.8532L6.86861 19.8649Z" fill="white"/>
</svg>
