<svg width="16" height="17" viewBox="0 0 16 17" fill="none" xmlns="http://www.w3.org/2000/svg">
<path d="M14.9447 8.15668L11.6013 7.87129L11.5642 7.68055L14.5535 6.06505C14.6387 6.01942 14.7049 5.94148 14.7391 5.8465C14.7732 5.75152 14.7728 5.64637 14.7379 5.55166C14.7019 5.45682 14.6333 5.38023 14.5461 5.33753C14.459 5.29484 14.3598 5.28928 14.2689 5.32198L11.0692 6.3851C11.0259 6.31279 10.9827 6.23389 10.9394 6.16815L13.101 3.43524C13.1664 3.36279 13.2029 3.26604 13.2027 3.16539C13.2026 3.06474 13.166 2.96807 13.1003 2.89577C13.0313 2.82549 12.9396 2.78632 12.8442 2.78643C12.7488 2.78655 12.6571 2.82595 12.5883 2.8964L10.0376 5.20872L9.88331 5.10366L10.9278 1.70105C10.9568 1.6057 10.9513 1.5022 10.9124 1.41092C10.8735 1.31965 10.8039 1.24722 10.7174 1.20789C10.6311 1.16632 10.5331 1.16163 10.4437 1.19478C10.3542 1.22793 10.2801 1.29641 10.2365 1.38611L8.67996 4.55907L8.40851 4.47387L8.12664 0.908428C8.11876 0.807803 8.07552 0.714034 8.0057 0.645833C7.93588 0.577632 7.84455 0.540013 7.74989 0.540469C7.65563 0.541734 7.5652 0.580081 7.49584 0.648163C7.42649 0.716244 7.38318 0.809261 7.37419 0.909347L7.10088 4.47547L6.92218 4.50859L5.40706 1.31964C5.36323 1.22992 5.28978 1.16076 5.20083 1.12562C5.11189 1.09047 5.01393 1.09184 4.92588 1.12945C4.83838 1.16778 4.76756 1.23988 4.72766 1.33137C4.68777 1.42287 4.68167 1.52703 4.71055 1.62313L5.7078 5.04296L5.50439 5.18138L2.94804 2.87528C2.87837 2.80647 2.78702 2.76829 2.69207 2.76841C2.59713 2.76853 2.50572 2.80692 2.43622 2.87591C2.37074 2.94836 2.33418 3.04512 2.33431 3.14577C2.33443 3.24642 2.37122 3.34309 2.43688 3.41538L4.61127 6.14299C4.57289 6.19523 4.53782 6.25023 4.50652 6.30759L1.32264 5.18648C1.23159 5.15713 1.1336 5.16442 1.04726 5.20696C0.960919 5.2495 0.892229 5.32434 0.85417 5.41731C0.817195 5.51037 0.814565 5.6149 0.846698 5.70999C0.87883 5.80509 0.943375 5.88375 1.02751 5.93026L4.00244 7.5911C3.97753 7.67491 3.95902 7.76074 3.94719 7.84775L0.604675 8.14131C0.510342 8.15267 0.423085 8.20048 0.359544 8.2757C0.296003 8.35093 0.260539 8.44836 0.259743 8.54962C0.260945 8.65016 0.296825 8.74669 0.360662 8.82068C0.424499 8.89467 0.511831 8.9409 0.605663 8.95051L3.94888 9.2359L3.98617 9.43323L0.996723 11.0487C0.910988 11.0918 0.844457 11.1689 0.81117 11.2635C0.777882 11.3581 0.780439 11.4629 0.818453 11.5555C0.853261 11.6501 0.920439 11.727 1.00634 11.7709C1.09224 11.8147 1.19047 11.8222 1.28132 11.7918L4.48119 10.7221C4.52146 10.7979 4.56689 10.8704 4.61713 10.939L2.44941 13.672C2.38491 13.7463 2.34903 13.8438 2.34916 13.9451C2.34928 14.0464 2.38539 14.1439 2.45008 14.218C2.52039 14.2854 2.61165 14.3227 2.70619 14.3225C2.80073 14.3224 2.89174 14.285 2.9619 14.2174L5.5126 11.8985L5.66693 12.0101L4.62259 15.4061C4.59326 15.5024 4.59853 15.6069 4.6374 15.6993C4.67627 15.7916 4.74586 15.8653 4.83281 15.9059C4.92005 15.9453 5.01803 15.9482 5.10717 15.914C5.19632 15.8797 5.27009 15.8108 5.31368 15.7211L6.87026 12.5481C6.94915 12.5719 7.02951 12.5894 7.1108 12.6005L7.39283 16.1659C7.40063 16.2672 7.4435 16.3617 7.51317 16.4309C7.58284 16.5002 7.67421 16.5393 7.76944 16.5405C7.86509 16.5406 7.95714 16.5018 8.02695 16.4321C8.09675 16.3623 8.13913 16.2668 8.14528 16.165L8.41844 12.5989L8.59729 12.5658L10.1123 15.7547C10.155 15.8455 10.2284 15.9156 10.3177 15.9509C10.4071 15.9862 10.5057 15.9841 10.5936 15.9449C10.682 15.9078 10.7537 15.8359 10.7938 15.744C10.8338 15.6521 10.8393 15.5473 10.8089 15.4512L9.81167 12.038L10.0151 11.893L12.5713 14.2056C12.641 14.2745 12.7325 14.3126 12.8274 14.3125C12.9223 14.3124 13.0138 14.274 13.0833 14.205C13.1478 14.1307 13.1835 14.0331 13.1834 13.9319C13.1832 13.8306 13.1473 13.7331 13.0826 13.659L10.9144 10.9313L11.0128 10.7733L14.2028 11.8879C14.293 11.9201 14.3913 11.9141 14.4773 11.8711C14.5634 11.8281 14.6306 11.7515 14.6651 11.657C14.7021 11.564 14.7049 11.4594 14.6728 11.3644C14.6406 11.2693 14.5761 11.1906 14.492 11.1441L11.5232 9.48981C11.5231 9.40429 11.5601 9.31871 11.5723 9.22659L14.9148 8.93303C15.0086 8.92319 15.0957 8.87675 15.1593 8.8026C15.223 8.72845 15.2588 8.63183 15.2597 8.53129C15.253 8.44064 15.2185 8.35487 15.1616 8.28717C15.1046 8.21948 15.0285 8.17363 14.9447 8.15668ZM7.79901 10.4286C7.33822 10.4274 6.89647 10.2319 6.57022 9.88476C6.24396 9.53761 6.05963 9.06694 6.0574 8.57543C6.0568 8.08339 6.23945 7.61127 6.56521 7.26295C6.89097 6.91462 7.33319 6.71861 7.79448 6.71805C8.25577 6.71749 8.69847 6.91241 9.02508 7.25994C9.35168 7.60747 9.53549 8.07914 9.53609 8.57118C9.53669 9.06323 9.35404 9.53535 9.02828 9.88368C8.70252 10.232 8.2603 10.428 7.79901 10.4286Z" fill="white"/>
</svg>
