<svg width="209" height="199" viewBox="0 0 209 199" fill="none" xmlns="http://www.w3.org/2000/svg">
<g filter="url(#filter0_di_2_303)">
<g filter="url(#filter1_bdd_2_303)">
<path d="M99.8441 103.618L115.38 75.1963C115.73 74.5554 116.402 74.1565 117.132 74.1556L130.934 74.1387C132.438 74.1369 133.406 75.7343 132.708 77.0669L124.084 93.527C123.385 94.8597 124.353 96.4571 125.858 96.4552L133.874 96.4454C135.604 96.4433 136.521 98.4905 135.366 99.7796L106.227 132.323C104.753 133.97 102.09 132.36 102.864 130.289L110.715 109.269C111.203 107.96 110.235 106.567 108.839 106.569L101.601 106.578C100.081 106.579 99.115 104.952 99.8441 103.618Z" fill="url(#paint0_linear_2_303)"/>
<path d="M100.722 104.098L116.257 75.676C116.432 75.3555 116.768 75.156 117.133 75.1556L130.935 75.1387C131.687 75.1378 132.171 75.9365 131.822 76.6028L132.708 77.0669L131.822 76.6028L123.198 93.063C122.151 95.0619 123.602 97.458 125.859 97.4552L133.875 97.4454C134.74 97.4444 135.198 98.468 134.621 99.1125L105.482 131.656C104.745 132.479 103.414 131.674 103.801 130.639L111.651 109.618C112.384 107.656 110.932 105.566 108.837 105.569L101.6 105.578C100.84 105.579 100.357 104.765 100.722 104.098Z" stroke="url(#paint1_linear_2_303)" stroke-width="2"/>
</g>
<g filter="url(#filter2_bd_2_303)">
<mask id="path-3-inside-1_2_303" fill="white">
<path fill-rule="evenodd" clip-rule="evenodd" d="M140.661 92.1865C140.72 92.1871 140.779 92.1874 140.838 92.1873C149.275 92.177 156.106 85.351 156.096 76.941C156.086 68.531 149.238 61.7217 140.801 61.732C140.742 61.7321 140.683 61.7325 140.623 61.7333L140.623 61.7323L136.677 61.7371C136.818 60.6948 136.891 59.6307 136.889 58.5496C136.874 45.6413 126.363 35.1898 113.413 35.2056C100.464 35.2214 89.9788 45.6986 89.9946 58.6069C89.9961 59.8249 90.091 61.021 90.2726 62.1886C89.1572 61.9317 87.995 61.7965 86.8011 61.798C78.3642 61.8083 71.5331 68.6343 71.5434 77.0443C71.5537 85.4543 78.4014 92.2636 86.8383 92.2533C86.8979 92.2532 86.9574 92.2528 87.0168 92.2521L87.016 92.2531L140.661 92.1875L140.661 92.1865Z"/>
</mask>
<path fill-rule="evenodd" clip-rule="evenodd" d="M140.661 92.1865C140.72 92.1871 140.779 92.1874 140.838 92.1873C149.275 92.177 156.106 85.351 156.096 76.941C156.086 68.531 149.238 61.7217 140.801 61.732C140.742 61.7321 140.683 61.7325 140.623 61.7333L140.623 61.7323L136.677 61.7371C136.818 60.6948 136.891 59.6307 136.889 58.5496C136.874 45.6413 126.363 35.1898 113.413 35.2056C100.464 35.2214 89.9788 45.6986 89.9946 58.6069C89.9961 59.8249 90.091 61.021 90.2726 62.1886C89.1572 61.9317 87.995 61.7965 86.8011 61.798C78.3642 61.8083 71.5331 68.6343 71.5434 77.0443C71.5537 85.4543 78.4014 92.2636 86.8383 92.2533C86.8979 92.2532 86.9574 92.2528 87.0168 92.2521L87.016 92.2531L140.661 92.1875L140.661 92.1865Z" fill="url(#paint2_linear_2_303)" shape-rendering="crispEdges"/>
<path d="M140.661 92.1865L140.681 90.1866C140.147 90.1812 139.632 90.3899 139.253 90.766C138.873 91.1422 138.66 91.6546 138.661 92.189L140.661 92.1865ZM140.623 61.7333L138.623 61.7357C138.624 62.2701 138.839 62.782 139.219 63.1572C139.599 63.5324 140.114 63.7398 140.649 63.7331L140.623 61.7333ZM140.623 61.7323L142.623 61.7298C142.622 60.6252 141.726 59.7309 140.621 59.7323L140.623 61.7323ZM136.677 61.7371L134.695 61.4684C134.618 62.0409 134.791 62.619 135.172 63.0538C135.552 63.4886 136.102 63.7378 136.679 63.7371L136.677 61.7371ZM90.2726 62.1886L89.8237 64.1375C90.4705 64.2865 91.149 64.1049 91.635 63.6528C92.1209 63.2007 92.3509 62.537 92.2488 61.8812L90.2726 62.1886ZM87.0168 92.2521L88.5867 93.4911C89.0644 92.8859 89.1516 92.06 88.811 91.3684C88.4703 90.6767 87.7624 90.2425 86.9915 90.2522L87.0168 92.2521ZM87.016 92.2531L85.446 91.014C84.9709 91.616 84.8819 92.4366 85.2168 93.1265C85.5517 93.8164 86.2516 94.254 87.0184 94.2531L87.016 92.2531ZM140.661 92.1875L140.663 94.1875C141.768 94.1862 142.662 93.2897 142.661 92.1851L140.661 92.1875ZM140.64 94.1864C140.707 94.1871 140.774 94.1874 140.841 94.1873L140.836 90.1873C140.784 90.1874 140.732 90.1872 140.681 90.1866L140.64 94.1864ZM140.841 94.1873C150.376 94.1757 158.108 86.4591 158.096 76.9386L154.096 76.9435C154.105 84.2429 148.174 90.1784 140.836 90.1873L140.841 94.1873ZM158.096 76.9386C158.084 67.418 150.334 59.7204 140.799 59.732L140.804 63.732C148.142 63.7231 154.087 69.644 154.096 76.9435L158.096 76.9386ZM140.799 59.732C140.732 59.7321 140.665 59.7326 140.598 59.7334L140.649 63.7331C140.7 63.7325 140.752 63.7321 140.804 63.732L140.799 59.732ZM138.623 61.7347L138.623 61.7357L142.623 61.7308L142.623 61.7298L138.623 61.7347ZM136.679 63.7371L140.626 63.7323L140.621 59.7323L136.675 59.7371L136.679 63.7371ZM138.659 62.0057C138.812 60.8738 138.891 59.7192 138.889 58.5472L134.889 58.5521C134.89 59.5423 134.824 60.5158 134.695 61.4684L138.659 62.0057ZM138.889 58.5472C138.872 44.5282 127.459 33.1885 113.411 33.2056L113.416 37.2056C125.267 37.1911 134.875 46.7543 134.889 58.5521L138.889 58.5472ZM113.411 33.2056C99.3628 33.2228 87.9775 44.5904 87.9946 58.6094L91.9946 58.6045C91.9802 46.8067 101.565 37.2201 113.416 37.2056L113.411 33.2056ZM87.9946 58.6094C87.9962 59.9298 88.0991 61.2279 88.2964 62.496L92.2488 61.8812C92.0829 60.8142 91.996 59.72 91.9946 58.6045L87.9946 58.6094ZM90.7215 60.2396C89.4591 59.9488 88.1455 59.7964 86.7986 59.798L86.8035 63.798C87.8446 63.7967 88.8553 63.9145 89.8237 64.1375L90.7215 60.2396ZM86.7986 59.798C77.2632 59.8097 69.5318 67.5262 69.5434 77.0468L73.5434 77.0419C73.5345 69.7425 79.4652 63.807 86.8035 63.798L86.7986 59.798ZM69.5434 77.0468C69.555 86.5673 77.3053 94.2649 86.8407 94.2533L86.8359 90.2533C79.4975 90.2623 73.5523 84.3413 73.5434 77.0419L69.5434 77.0468ZM86.8407 94.2533C86.9079 94.2532 86.975 94.2527 87.0421 94.2519L86.9915 90.2522C86.9397 90.2529 86.8878 90.2532 86.8359 90.2533L86.8407 94.2533ZM88.5859 93.4921L88.5867 93.4911L85.4468 91.013L85.446 91.014L88.5859 93.4921ZM140.658 90.1875L87.0135 90.2531L87.0184 94.2531L140.663 94.1875L140.658 90.1875ZM138.661 92.189L138.661 92.19L142.661 92.1851L142.661 92.1841L138.661 92.189Z" fill="url(#paint3_linear_2_303)" mask="url(#path-3-inside-1_2_303)"/>
</g>
<g filter="url(#filter3_bd_2_303)">
<mask id="path-5-inside-2_2_303" fill="white">
<path fill-rule="evenodd" clip-rule="evenodd" d="M168.374 76.342C168.417 76.3424 168.46 76.3426 168.503 76.3426C174.6 76.3351 179.537 71.4021 179.529 65.3242C179.522 59.2464 174.573 54.3254 168.476 54.3329C168.433 54.3329 168.39 54.3332 168.347 54.3338L168.347 54.333L165.495 54.3365C165.597 53.5833 165.65 52.8143 165.649 52.033C165.637 42.7043 158.041 35.1511 148.683 35.1625C139.324 35.174 131.747 42.7457 131.758 52.0744C131.759 52.9546 131.828 53.8191 131.959 54.6628C131.153 54.4772 130.313 54.3795 129.45 54.3806C123.353 54.388 118.416 59.3211 118.424 65.3989C118.431 71.4767 123.38 76.3977 129.477 76.3903C129.52 76.3902 129.563 76.3899 129.606 76.3894L129.606 76.3901L168.374 76.3427L168.374 76.342Z"/>
</mask>
<path fill-rule="evenodd" clip-rule="evenodd" d="M168.374 76.342C168.417 76.3424 168.46 76.3426 168.503 76.3426C174.6 76.3351 179.537 71.4021 179.529 65.3242C179.522 59.2464 174.573 54.3254 168.476 54.3329C168.433 54.3329 168.39 54.3332 168.347 54.3338L168.347 54.333L165.495 54.3365C165.597 53.5833 165.65 52.8143 165.649 52.033C165.637 42.7043 158.041 35.1511 148.683 35.1625C139.324 35.174 131.747 42.7457 131.758 52.0744C131.759 52.9546 131.828 53.8191 131.959 54.6628C131.153 54.4772 130.313 54.3795 129.45 54.3806C123.353 54.388 118.416 59.3211 118.424 65.3989C118.431 71.4767 123.38 76.3977 129.477 76.3903C129.52 76.3902 129.563 76.3899 129.606 76.3894L129.606 76.3901L168.374 76.3427L168.374 76.342Z" fill="url(#paint4_linear_2_303)" shape-rendering="crispEdges"/>
<path d="M168.374 76.342L168.394 74.3421C167.86 74.3367 167.346 74.5454 166.966 74.9215C166.587 75.2977 166.374 75.8101 166.374 76.3445L168.374 76.342ZM168.347 54.3338L166.347 54.3362C166.348 54.8706 166.562 55.3825 166.943 55.7577C167.323 56.133 167.838 56.3403 168.373 56.3336L168.347 54.3338ZM168.347 54.333L170.347 54.3306C170.346 53.226 169.449 52.3317 168.345 52.333L168.347 54.333ZM165.495 54.3365L163.513 54.0679C163.436 54.6404 163.61 55.2184 163.99 55.6533C164.37 56.0881 164.92 56.3372 165.498 56.3365L165.495 54.3365ZM131.959 54.6628L131.51 56.6118C132.157 56.7608 132.836 56.5792 133.322 56.1271C133.808 55.675 134.038 55.0113 133.936 54.3554L131.959 54.6628ZM129.606 76.3894L131.177 77.6272C131.654 77.0219 131.741 76.1963 131.4 75.505C131.059 74.8138 130.352 74.3798 129.581 74.3895L129.606 76.3894ZM129.606 76.3901L128.035 75.1523C127.56 75.7544 127.472 76.5747 127.807 77.2642C128.142 77.9537 128.842 78.391 129.608 78.3901L129.606 76.3901ZM168.374 76.3427L168.377 78.3427C169.481 78.3414 170.376 77.4449 170.374 76.3403L168.374 76.3427ZM168.354 78.3419C168.404 78.3424 168.455 78.3426 168.505 78.3426L168.5 74.3426C168.465 74.3426 168.43 74.3425 168.394 74.3421L168.354 78.3419ZM168.505 78.3426C175.701 78.3338 181.538 72.5102 181.529 65.3218L177.529 65.3267C177.535 70.2939 173.499 74.3365 168.5 74.3426L168.505 78.3426ZM181.529 65.3218C181.52 58.1334 175.669 52.3241 168.473 52.3329L168.478 56.3329C173.477 56.3268 177.523 60.3595 177.529 65.3267L181.529 65.3218ZM168.473 52.3329C168.423 52.3329 168.372 52.3333 168.322 52.3339L168.373 56.3336C168.408 56.3332 168.443 56.3329 168.478 56.3329L168.473 52.3329ZM166.347 54.3355L166.347 54.3362L170.347 54.3313L170.347 54.3306L166.347 54.3355ZM165.498 56.3365L168.35 56.333L168.345 52.333L165.493 52.3365L165.498 56.3365ZM167.477 54.6052C167.591 53.7623 167.65 52.9028 167.649 52.0306L163.649 52.0354C163.65 52.7258 163.603 53.4042 163.513 54.0679L167.477 54.6052ZM167.649 52.0306C167.636 41.5912 159.138 33.1498 148.68 33.1625L148.685 37.1625C156.945 37.1524 163.639 43.8173 163.649 52.0354L167.649 52.0306ZM148.68 33.1625C138.223 33.1753 129.746 41.6375 129.758 52.0768L133.758 52.072C133.748 43.8538 140.425 37.1726 148.685 37.1625L148.68 33.1625ZM129.758 52.0768C129.76 53.0595 129.836 54.0259 129.983 54.9702L133.936 54.3554C133.82 53.6122 133.759 52.8497 133.758 52.072L129.758 52.0768ZM132.408 52.7138C131.455 52.4943 130.464 52.3793 129.448 52.3806L129.453 56.3806C130.163 56.3797 130.851 56.46 131.51 56.6118L132.408 52.7138ZM129.448 52.3806C122.252 52.3894 116.415 58.213 116.424 65.4013L120.424 65.3965C120.418 60.4292 124.454 56.3867 129.453 56.3806L129.448 52.3806ZM116.424 65.4013C116.433 72.5897 122.284 78.3991 129.48 78.3903L129.475 74.3903C124.476 74.3964 120.43 70.3637 120.424 65.3965L116.424 65.4013ZM129.48 78.3903C129.531 78.3902 129.581 78.3898 129.632 78.3892L129.581 74.3895C129.546 74.39 129.51 74.3902 129.475 74.3903L129.48 78.3903ZM131.177 77.6279L131.177 77.6272L128.035 75.1515L128.035 75.1523L131.177 77.6279ZM168.372 74.3427L129.603 74.3901L129.608 78.3901L168.377 78.3427L168.372 74.3427ZM166.374 76.3445L166.374 76.3452L170.374 76.3403L170.374 76.3396L166.374 76.3445Z" fill="url(#paint5_linear_2_303)" mask="url(#path-5-inside-2_2_303)"/>
</g>
</g>
<defs>
<filter id="filter0_di_2_303" x="71.4923" y="35.1249" width="122.128" height="119.132" filterUnits="userSpaceOnUse" color-interpolation-filters="sRGB">
<feFlood flood-opacity="0" result="BackgroundImageFix"/>
<feColorMatrix in="SourceAlpha" type="matrix" values="0 0 0 0 0 0 0 0 0 0 0 0 0 0 0 0 0 0 127 0" result="hardAlpha"/>
<feOffset dx="10" dy="10"/>
<feGaussianBlur stdDeviation="2"/>
<feComposite in2="hardAlpha" operator="out"/>
<feColorMatrix type="matrix" values="0 0 0 0 0 0 0 0 0 0 0 0 0 0 0 0 0 0 0.25 0"/>
<feBlend mode="normal" in2="BackgroundImageFix" result="effect1_dropShadow_2_303"/>
<feBlend mode="normal" in="SourceGraphic" in2="effect1_dropShadow_2_303" result="shape"/>
<feColorMatrix in="SourceAlpha" type="matrix" values="0 0 0 0 0 0 0 0 0 0 0 0 0 0 0 0 0 0 127 0" result="hardAlpha"/>
<feOffset dx="10" dy="10"/>
<feGaussianBlur stdDeviation="2"/>
<feComposite in2="hardAlpha" operator="arithmetic" k2="-1" k3="1"/>
<feColorMatrix type="matrix" values="0 0 0 0 0 0 0 0 0 0 0 0 0 0 0 0 0 0 0.25 0"/>
<feBlend mode="normal" in2="shape" result="effect2_innerShadow_2_303"/>
</filter>
<filter id="filter1_bdd_2_303" x="28.5962" y="13.1387" width="168.284" height="184.863" filterUnits="userSpaceOnUse" color-interpolation-filters="sRGB">
<feFlood flood-opacity="0" result="BackgroundImageFix"/>
<feGaussianBlur in="BackgroundImage" stdDeviation="7"/>
<feComposite in2="SourceAlpha" operator="in" result="effect1_backgroundBlur_2_303"/>
<feColorMatrix in="SourceAlpha" type="matrix" values="0 0 0 0 0 0 0 0 0 0 0 0 0 0 0 0 0 0 127 0" result="hardAlpha"/>
<feOffset dx="-21" dy="15"/>
<feGaussianBlur stdDeviation="25"/>
<feComposite in2="hardAlpha" operator="out"/>
<feColorMatrix type="matrix" values="0 0 0 0 0.113438 0 0 0 0 0.148981 0 0 0 0 0.275 0 0 0 0.25 0"/>
<feBlend mode="normal" in2="effect1_backgroundBlur_2_303" result="effect2_dropShadow_2_303"/>
<feColorMatrix in="SourceAlpha" type="matrix" values="0 0 0 0 0 0 0 0 0 0 0 0 0 0 0 0 0 0 127 0" result="hardAlpha"/>
<feOffset/>
<feGaussianBlur stdDeviation="30.5"/>
<feComposite in2="hardAlpha" operator="out"/>
<feColorMatrix type="matrix" values="0 0 0 0 1 0 0 0 0 0.721569 0 0 0 0 0.00392157 0 0 0 0.49 0"/>
<feBlend mode="normal" in2="effect2_dropShadow_2_303" result="effect3_dropShadow_2_303"/>
<feBlend mode="normal" in="SourceGraphic" in2="effect3_dropShadow_2_303" result="shape"/>
</filter>
<filter id="filter2_bd_2_303" x="0.543396" y="0.205605" width="184.553" height="157.048" filterUnits="userSpaceOnUse" color-interpolation-filters="sRGB">
<feFlood flood-opacity="0" result="BackgroundImageFix"/>
<feGaussianBlur in="BackgroundImage" stdDeviation="7"/>
<feComposite in2="SourceAlpha" operator="in" result="effect1_backgroundBlur_2_303"/>
<feColorMatrix in="SourceAlpha" type="matrix" values="0 0 0 0 0 0 0 0 0 0 0 0 0 0 0 0 0 0 127 0" result="hardAlpha"/>
<feOffset dx="-21" dy="15"/>
<feGaussianBlur stdDeviation="25"/>
<feComposite in2="hardAlpha" operator="out"/>
<feColorMatrix type="matrix" values="0 0 0 0 0.113725 0 0 0 0 0.14902 0 0 0 0 0.27451 0 0 0 0.25 0"/>
<feBlend mode="normal" in2="effect1_backgroundBlur_2_303" result="effect2_dropShadow_2_303"/>
<feBlend mode="normal" in="SourceGraphic" in2="effect2_dropShadow_2_303" result="shape"/>
</filter>
<filter id="filter3_bd_2_303" x="47.4239" y="0.162521" width="161.105" height="141.228" filterUnits="userSpaceOnUse" color-interpolation-filters="sRGB">
<feFlood flood-opacity="0" result="BackgroundImageFix"/>
<feGaussianBlur in="BackgroundImage" stdDeviation="7"/>
<feComposite in2="SourceAlpha" operator="in" result="effect1_backgroundBlur_2_303"/>
<feColorMatrix in="SourceAlpha" type="matrix" values="0 0 0 0 0 0 0 0 0 0 0 0 0 0 0 0 0 0 127 0" result="hardAlpha"/>
<feOffset dx="-21" dy="15"/>
<feGaussianBlur stdDeviation="25"/>
<feComposite in2="hardAlpha" operator="out"/>
<feColorMatrix type="matrix" values="0 0 0 0 0.113438 0 0 0 0 0.148981 0 0 0 0 0.275 0 0 0 0.25 0"/>
<feBlend mode="normal" in2="effect1_backgroundBlur_2_303" result="effect2_dropShadow_2_303"/>
<feBlend mode="normal" in="SourceGraphic" in2="effect2_dropShadow_2_303" result="shape"/>
</filter>
<linearGradient id="paint0_linear_2_303" x1="122.17" y1="78.0449" x2="113.389" y2="116.491" gradientUnits="userSpaceOnUse">
<stop stop-color="#FF4D00"/>
<stop offset="1" stop-color="#FFB800"/>
</linearGradient>
<linearGradient id="paint1_linear_2_303" x1="110.315" y1="115.951" x2="126.352" y2="81.3647" gradientUnits="userSpaceOnUse">
<stop stop-color="white"/>
<stop offset="1" stop-color="white" stop-opacity="0"/>
</linearGradient>
<linearGradient id="paint2_linear_2_303" x1="113.746" y1="16.9674" x2="113.848" y2="100.188" gradientUnits="userSpaceOnUse">
<stop stop-color="white"/>
<stop offset="1" stop-color="white" stop-opacity="0"/>
</linearGradient>
<linearGradient id="paint3_linear_2_303" x1="113.769" y1="35.2052" x2="113.838" y2="92.2203" gradientUnits="userSpaceOnUse">
<stop stop-color="white"/>
<stop offset="1" stop-color="white" stop-opacity="0"/>
</linearGradient>
<linearGradient id="paint4_linear_2_303" x1="151.783" y1="36.3982" x2="151.838" y2="81.0187" gradientUnits="userSpaceOnUse">
<stop stop-color="white"/>
<stop offset="1" stop-color="white" stop-opacity="0"/>
</linearGradient>
<linearGradient id="paint5_linear_2_303" x1="148.94" y1="35.1622" x2="148.99" y2="76.3664" gradientUnits="userSpaceOnUse">
<stop stop-color="white"/>
<stop offset="1" stop-color="white" stop-opacity="0"/>
</linearGradient>
</defs>
</svg>
