<svg width="200" height="153" viewBox="0 0 200 153" fill="none" xmlns="http://www.w3.org/2000/svg">
<g filter="url(#filter0_di_2_233)">
<circle cx="127.442" cy="36.9087" r="18.2138" transform="rotate(-0.07 127.442 36.9087)" fill="url(#paint0_linear_2_233)" stroke="url(#paint1_linear_2_233)" stroke-width="2"/>
<g filter="url(#filter1_bd_2_233)">
<mask id="path-2-inside-1_2_233" fill="white">
<path fill-rule="evenodd" clip-rule="evenodd" d="M134.506 87.7018C134.56 87.7024 134.614 87.7026 134.669 87.7025C142.403 87.6931 148.664 81.416 148.655 73.6822C148.646 65.9484 142.368 59.6865 134.635 59.696C134.58 59.696 134.526 59.6964 134.472 59.6971L134.472 59.6962L130.854 59.7006C130.984 58.7421 131.05 57.7636 131.049 56.7694C131.034 44.8989 121.4 35.2877 109.529 35.3022C97.6586 35.3168 88.0474 44.9514 88.0619 56.8219C88.0633 57.942 88.1503 59.042 88.3168 60.1156C87.2943 59.8794 86.229 59.7551 85.1346 59.7565C77.4008 59.7659 71.139 66.043 71.1484 73.7768C71.1579 81.5106 77.435 87.7725 85.1688 87.763C85.2234 87.763 85.2779 87.7626 85.3324 87.7619L85.3317 87.7628L134.506 87.7027L134.506 87.7018Z"/>
</mask>
<path fill-rule="evenodd" clip-rule="evenodd" d="M134.506 87.7018C134.56 87.7024 134.614 87.7026 134.669 87.7025C142.403 87.6931 148.664 81.416 148.655 73.6822C148.646 65.9484 142.368 59.6865 134.635 59.696C134.58 59.696 134.526 59.6964 134.472 59.6971L134.472 59.6962L130.854 59.7006C130.984 58.7421 131.05 57.7636 131.049 56.7694C131.034 44.8989 121.4 35.2877 109.529 35.3022C97.6586 35.3168 88.0474 44.9514 88.0619 56.8219C88.0633 57.942 88.1503 59.042 88.3168 60.1156C87.2943 59.8794 86.229 59.7551 85.1346 59.7565C77.4008 59.7659 71.139 66.043 71.1484 73.7768C71.1579 81.5106 77.435 87.7725 85.1688 87.763C85.2234 87.763 85.2779 87.7626 85.3324 87.7619L85.3317 87.7628L134.506 87.7027L134.506 87.7018Z" fill="url(#paint2_linear_2_233)" shape-rendering="crispEdges"/>
<path d="M134.506 87.7018L134.526 85.7019C133.992 85.6964 133.478 85.9051 133.098 86.2812C132.719 86.6574 132.505 87.1698 132.506 87.7042L134.506 87.7018ZM134.472 59.6971L132.472 59.6995C132.472 60.2339 132.687 60.7458 133.067 61.121C133.448 61.4963 133.963 61.7037 134.497 61.6969L134.472 59.6971ZM134.472 59.6961L136.472 59.6937C136.47 58.5891 135.574 57.6948 134.469 57.6961L134.472 59.6961ZM130.854 59.7006L128.872 59.4328C128.795 60.0051 128.969 60.583 129.349 61.0176C129.729 61.4523 130.279 61.7013 130.857 61.7006L130.854 59.7006ZM88.3168 60.1156L87.8665 62.0642C88.5133 62.2137 89.192 62.0325 89.6782 61.5806C90.1645 61.1287 90.3948 60.4651 90.2931 59.8091L88.3168 60.1156ZM85.3324 87.7618L86.9033 88.9997C87.3803 88.3943 87.467 87.5687 87.1263 86.8775C86.7855 86.1862 86.0778 85.7523 85.3071 85.762L85.3324 87.7618ZM85.3317 87.7628L83.7608 86.5249C83.2863 87.1271 83.1978 87.9474 83.5328 88.6369C83.8678 89.3264 84.5675 89.7637 85.3341 89.7628L85.3317 87.7628ZM134.506 87.7027L134.508 89.7027C135.613 89.7014 136.507 88.8048 136.506 87.7003L134.506 87.7027ZM134.486 89.7017C134.547 89.7023 134.609 89.7026 134.671 89.7025L134.666 85.7025C134.62 85.7026 134.573 85.7024 134.526 85.7019L134.486 89.7017ZM134.671 89.7025C143.51 89.6917 150.666 82.518 150.655 73.6797L146.655 73.6846C146.663 80.3138 141.296 85.6944 134.666 85.7025L134.671 89.7025ZM150.655 73.6797C150.644 64.8413 143.471 57.6851 134.632 57.6959L134.637 61.6959C141.266 61.6878 146.647 67.0553 146.655 73.6846L150.655 73.6797ZM134.632 57.6959C134.57 57.696 134.508 57.6964 134.447 57.6972L134.497 61.6969C134.544 61.6963 134.59 61.696 134.637 61.6959L134.632 57.6959ZM132.472 59.6986L132.472 59.6995L136.472 59.6946L136.472 59.6937L132.472 59.6986ZM130.857 61.7006L134.474 61.6961L134.469 57.6961L130.852 57.7006L130.857 61.7006ZM132.836 59.9683C132.978 58.9205 133.05 57.8517 133.049 56.7669L129.049 56.7718C129.05 57.6754 128.99 58.5636 128.872 59.4328L132.836 59.9683ZM133.049 56.7669C133.033 43.7919 122.502 33.2864 109.527 33.3022L109.531 37.3022C120.297 37.2891 129.036 46.0059 129.049 56.7718L133.049 56.7669ZM109.527 33.3022C96.5516 33.3181 86.046 43.8493 86.0619 56.8243L90.0619 56.8194C90.0487 46.0535 98.7656 37.3154 109.531 37.3022L109.527 33.3022ZM86.0619 56.8243C86.0634 58.0465 86.1584 59.2481 86.3404 60.422L90.2931 59.8091C90.1422 58.8357 90.0631 57.8374 90.0619 56.8194L86.0619 56.8243ZM88.767 58.1669C87.5971 57.8966 86.38 57.7549 85.1321 57.7564L85.137 61.7564C86.078 61.7553 86.9914 61.8621 87.8665 62.0642L88.767 58.1669ZM85.1321 57.7564C76.2938 57.7672 69.1376 64.9409 69.1484 73.7793L73.1484 73.7744C73.1403 67.1451 78.5078 61.7645 85.137 61.7564L85.1321 57.7564ZM69.1484 73.7793C69.1592 82.6176 76.3329 89.7738 85.1713 89.763L85.1664 85.763C78.5371 85.7711 73.1565 80.4036 73.1484 73.7744L69.1484 73.7793ZM85.1713 89.763C85.2335 89.7629 85.2956 89.7625 85.3577 89.7617L85.3071 85.762C85.2603 85.7626 85.2133 85.7629 85.1664 85.763L85.1713 89.763ZM86.9026 89.0006L86.9033 88.9997L83.7615 86.524L83.7608 86.5249L86.9026 89.0006ZM134.504 85.7027L85.3292 85.7628L85.3341 89.7628L134.508 89.7027L134.504 85.7027ZM132.506 87.7042L132.506 87.7051L136.506 87.7003L136.506 87.6993L132.506 87.7042Z" fill="url(#paint3_linear_2_233)" mask="url(#path-2-inside-1_2_233)"/>
</g>
<g filter="url(#filter2_bd_2_233)">
<mask id="path-4-inside-2_2_233" fill="white">
<path fill-rule="evenodd" clip-rule="evenodd" d="M159.91 73.1313C159.949 73.1317 159.988 73.1319 160.028 73.1319C165.617 73.125 170.142 68.5886 170.135 62.9995C170.128 57.4104 165.592 52.885 160.003 52.8918C159.964 52.8919 159.924 52.8921 159.885 52.8926L159.885 52.892L157.271 52.8952C157.364 52.2025 157.412 51.4953 157.412 50.7768C157.401 42.1982 150.438 35.2523 141.859 35.2628C133.281 35.2732 126.335 42.2361 126.345 50.8148C126.346 51.6243 126.409 52.4192 126.53 53.1951C125.791 53.0244 125.021 52.9346 124.23 52.9355C118.641 52.9424 114.115 57.4788 114.122 63.0679C114.129 68.657 118.665 73.1824 124.255 73.1756C124.294 73.1755 124.333 73.1753 124.373 73.1748L124.372 73.1754L159.91 73.132L159.91 73.1313Z"/>
</mask>
<path fill-rule="evenodd" clip-rule="evenodd" d="M159.91 73.1313C159.949 73.1317 159.988 73.1319 160.028 73.1319C165.617 73.125 170.142 68.5886 170.135 62.9995C170.128 57.4104 165.592 52.885 160.003 52.8918C159.964 52.8919 159.924 52.8921 159.885 52.8926L159.885 52.892L157.271 52.8952C157.364 52.2025 157.412 51.4953 157.412 50.7768C157.401 42.1982 150.438 35.2523 141.859 35.2628C133.281 35.2732 126.335 42.2361 126.345 50.8148C126.346 51.6243 126.409 52.4192 126.53 53.1951C125.791 53.0244 125.021 52.9346 124.23 52.9355C118.641 52.9424 114.115 57.4788 114.122 63.0679C114.129 68.657 118.665 73.1824 124.255 73.1756C124.294 73.1755 124.333 73.1753 124.373 73.1748L124.372 73.1754L159.91 73.132L159.91 73.1313Z" fill="url(#paint4_linear_2_233)" shape-rendering="crispEdges"/>
<path d="M159.91 73.1313L159.93 71.1314C159.396 71.126 158.882 71.3346 158.502 71.7108C158.123 72.0869 157.909 72.5994 157.91 73.1337L159.91 73.1313ZM159.885 52.8926L157.885 52.895C157.886 53.4294 158.1 53.9413 158.481 54.3166C158.861 54.6918 159.376 54.8992 159.91 54.8924L159.885 52.8926ZM159.885 52.8919L161.885 52.8895C161.884 51.7849 160.987 50.8906 159.883 50.8919L159.885 52.8919ZM157.271 52.8951L155.289 52.6273C155.212 53.1997 155.385 53.7775 155.766 54.2122C156.146 54.6468 156.696 54.8958 157.273 54.8951L157.271 52.8951ZM126.53 53.1951L126.079 55.1437C126.726 55.2932 127.405 55.112 127.891 54.6601C128.377 54.2083 128.608 53.5446 128.506 52.8886L126.53 53.1951ZM124.373 73.1747L125.943 74.4135C126.42 73.8083 126.508 72.9825 126.167 72.2909C125.826 71.5993 125.118 71.1651 124.347 71.1749L124.373 73.1747ZM124.372 73.1754L122.802 71.9366C122.327 72.5386 122.238 73.3592 122.573 74.049C122.908 74.7388 123.608 75.1763 124.375 75.1754L124.372 73.1754ZM159.91 73.132L159.912 75.132C161.017 75.1306 161.911 74.2341 161.91 73.1295L159.91 73.132ZM159.89 75.1312C159.936 75.1317 159.983 75.1319 160.03 75.1318L160.025 71.1318C159.994 71.1319 159.962 71.1317 159.93 71.1314L159.89 75.1312ZM160.03 75.1318C166.724 75.1236 172.143 69.6907 172.135 62.997L168.135 63.0019C168.141 67.4865 164.51 71.1264 160.025 71.1318L160.03 75.1318ZM172.135 62.997C172.127 56.3033 166.694 50.8836 160 50.8918L160.005 54.8918C164.49 54.8863 168.13 58.5173 168.135 63.0019L172.135 62.997ZM160 50.8918C159.954 50.8918 159.907 50.8922 159.86 50.8928L159.91 54.8924C159.942 54.892 159.974 54.8918 160.005 54.8918L160 50.8918ZM157.885 52.8944L157.885 52.895L161.885 52.8902L161.885 52.8895L157.885 52.8944ZM157.273 54.8951L159.888 54.8919L159.883 50.8919L157.268 50.8951L157.273 54.8951ZM159.253 53.1629C159.359 52.3809 159.412 51.5835 159.411 50.7744L155.411 50.7792C155.412 51.4071 155.37 52.024 155.289 52.6273L159.253 53.1629ZM159.411 50.7744C159.4 41.0911 151.54 33.2509 141.857 33.2627L141.862 37.2627C149.336 37.2536 155.402 43.3051 155.411 50.7792L159.411 50.7744ZM141.857 33.2627C132.174 33.2746 124.334 41.134 124.345 50.8172L128.345 50.8123C128.336 43.3382 134.388 37.2719 141.862 37.2627L141.857 33.2627ZM124.345 50.8172C124.347 51.7288 124.417 52.6254 124.553 53.5015L128.506 52.8886C128.401 52.2129 128.346 51.5196 128.345 50.8123L124.345 50.8172ZM126.98 51.2464C126.093 51.0416 125.172 50.9343 124.227 50.9355L124.232 54.9355C124.87 54.9347 125.488 55.007 126.079 55.1437L126.98 51.2464ZM124.227 50.9355C117.534 50.9437 112.114 56.3766 112.122 63.0703L116.122 63.0654C116.117 58.5809 119.748 54.941 124.232 54.9355L124.227 50.9355ZM112.122 63.0703C112.13 69.764 117.563 75.1837 124.257 75.1755L124.252 71.1755C119.768 71.181 116.128 67.55 116.122 63.0654L112.122 63.0703ZM124.257 75.1755C124.304 75.1755 124.351 75.1752 124.398 75.1746L124.347 71.1749C124.316 71.1753 124.284 71.1755 124.252 71.1755L124.257 75.1755ZM125.942 74.4142L125.943 74.4135L122.803 71.9359L122.802 71.9366L125.942 74.4142ZM159.908 71.132L124.37 71.1754L124.375 75.1754L159.912 75.132L159.908 71.132ZM157.91 73.1337L157.91 73.1344L161.91 73.1295L161.91 73.1289L157.91 73.1337Z" fill="url(#paint5_linear_2_233)" mask="url(#path-4-inside-2_2_233)"/>
</g>
</g>
<defs>
<filter id="filter0_di_2_233" x="71.1484" y="17.6949" width="112.987" height="84.0682" filterUnits="userSpaceOnUse" color-interpolation-filters="sRGB">
<feFlood flood-opacity="0" result="BackgroundImageFix"/>
<feColorMatrix in="SourceAlpha" type="matrix" values="0 0 0 0 0 0 0 0 0 0 0 0 0 0 0 0 0 0 127 0" result="hardAlpha"/>
<feOffset dx="10" dy="10"/>
<feGaussianBlur stdDeviation="2"/>
<feComposite in2="hardAlpha" operator="out"/>
<feColorMatrix type="matrix" values="0 0 0 0 0 0 0 0 0 0 0 0 0 0 0 0 0 0 0.25 0"/>
<feBlend mode="normal" in2="BackgroundImageFix" result="effect1_dropShadow_2_233"/>
<feBlend mode="normal" in="SourceGraphic" in2="effect1_dropShadow_2_233" result="shape"/>
<feColorMatrix in="SourceAlpha" type="matrix" values="0 0 0 0 0 0 0 0 0 0 0 0 0 0 0 0 0 0 127 0" result="hardAlpha"/>
<feOffset dx="10" dy="10"/>
<feGaussianBlur stdDeviation="2"/>
<feComposite in2="hardAlpha" operator="arithmetic" k2="-1" k3="1"/>
<feColorMatrix type="matrix" values="0 0 0 0 0 0 0 0 0 0 0 0 0 0 0 0 0 0 0.25 0"/>
<feBlend mode="normal" in2="shape" result="effect2_innerShadow_2_233"/>
</filter>
<filter id="filter1_bd_2_233" x="0.148407" y="0.302231" width="177.507" height="152.461" filterUnits="userSpaceOnUse" color-interpolation-filters="sRGB">
<feFlood flood-opacity="0" result="BackgroundImageFix"/>
<feGaussianBlur in="BackgroundImage" stdDeviation="7"/>
<feComposite in2="SourceAlpha" operator="in" result="effect1_backgroundBlur_2_233"/>
<feColorMatrix in="SourceAlpha" type="matrix" values="0 0 0 0 0 0 0 0 0 0 0 0 0 0 0 0 0 0 127 0" result="hardAlpha"/>
<feOffset dx="-21" dy="15"/>
<feGaussianBlur stdDeviation="25"/>
<feComposite in2="hardAlpha" operator="out"/>
<feColorMatrix type="matrix" values="0 0 0 0 0.113725 0 0 0 0 0.14902 0 0 0 0 0.27451 0 0 0 0.25 0"/>
<feBlend mode="normal" in2="effect1_backgroundBlur_2_233" result="effect2_dropShadow_2_233"/>
<feBlend mode="normal" in="SourceGraphic" in2="effect2_dropShadow_2_233" result="shape"/>
</filter>
<filter id="filter2_bd_2_233" x="43.1222" y="0.262756" width="156.013" height="137.913" filterUnits="userSpaceOnUse" color-interpolation-filters="sRGB">
<feFlood flood-opacity="0" result="BackgroundImageFix"/>
<feGaussianBlur in="BackgroundImage" stdDeviation="7"/>
<feComposite in2="SourceAlpha" operator="in" result="effect1_backgroundBlur_2_233"/>
<feColorMatrix in="SourceAlpha" type="matrix" values="0 0 0 0 0 0 0 0 0 0 0 0 0 0 0 0 0 0 127 0" result="hardAlpha"/>
<feOffset dx="-21" dy="15"/>
<feGaussianBlur stdDeviation="25"/>
<feComposite in2="hardAlpha" operator="out"/>
<feColorMatrix type="matrix" values="0 0 0 0 0.113438 0 0 0 0 0.148981 0 0 0 0 0.275 0 0 0 0.25 0"/>
<feBlend mode="normal" in2="effect1_backgroundBlur_2_233" result="effect2_dropShadow_2_233"/>
<feBlend mode="normal" in="SourceGraphic" in2="effect2_dropShadow_2_233" result="shape"/>
</filter>
<linearGradient id="paint0_linear_2_233" x1="127.442" y1="17.6949" x2="127.442" y2="56.1225" gradientUnits="userSpaceOnUse">
<stop stop-color="#FFE600"/>
<stop offset="1" stop-color="#FF7A00"/>
</linearGradient>
<linearGradient id="paint1_linear_2_233" x1="127.442" y1="17.6949" x2="127.442" y2="56.1225" gradientUnits="userSpaceOnUse">
<stop stop-color="white"/>
<stop offset="1" stop-color="white" stop-opacity="0"/>
</linearGradient>
<linearGradient id="paint2_linear_2_233" x1="109.834" y1="18.5305" x2="109.928" y2="95.06" gradientUnits="userSpaceOnUse">
<stop stop-color="white"/>
<stop offset="1" stop-color="white" stop-opacity="0"/>
</linearGradient>
<linearGradient id="paint3_linear_2_233" x1="109.855" y1="35.3019" x2="109.919" y2="87.7327" gradientUnits="userSpaceOnUse">
<stop stop-color="white"/>
<stop offset="1" stop-color="white" stop-opacity="0"/>
</linearGradient>
<linearGradient id="paint4_linear_2_233" x1="144.701" y1="36.3991" x2="144.752" y2="77.432" gradientUnits="userSpaceOnUse">
<stop stop-color="white"/>
<stop offset="1" stop-color="white" stop-opacity="0"/>
</linearGradient>
<linearGradient id="paint5_linear_2_233" x1="142.095" y1="35.2625" x2="142.141" y2="73.1537" gradientUnits="userSpaceOnUse">
<stop stop-color="white"/>
<stop offset="1" stop-color="white" stop-opacity="0"/>
</linearGradient>
</defs>
</svg>
