<svg width="19" height="19" viewBox="0 0 19 19" fill="none" xmlns="http://www.w3.org/2000/svg">
<path d="M7.76957 7.38036L1.31023 7.38825C1.17137 7.38842 1.03393 7.36113 0.905654 7.30796C0.777381 7.25478 0.660875 7.17678 0.562863 7.07842C0.464852 6.98006 0.387129 6.86328 0.334413 6.73482C0.281698 6.60636 0.255021 6.46875 0.255688 6.32989C0.254682 6.19104 0.281022 6.05336 0.333424 5.92477C0.385825 5.79618 0.463263 5.67921 0.561034 5.58061C0.658804 5.48201 0.77512 5.40371 0.903262 5.35022C1.0314 5.29674 1.16878 5.26913 1.30764 5.26896L7.76699 5.26107C8.08058 5.26069 8.38133 5.13617 8.6034 4.91475C8.82547 4.69333 8.95087 4.393 8.95217 4.07941C8.95178 3.76471 8.82631 3.46308 8.60352 3.24083C8.38073 3.01858 8.07879 2.89393 7.76409 2.89431L5.80988 2.8967C5.52885 2.89704 5.25916 2.78573 5.0602 2.58725C4.86123 2.38877 4.74918 2.1194 4.74884 1.83836C4.7485 1.55732 4.85989 1.28766 5.05837 1.08869C5.25685 0.889728 5.52626 0.777755 5.8073 0.777412L7.76151 0.775024C8.63717 0.775635 9.47693 1.12365 10.0963 1.74267C10.7156 2.3617 11.0641 3.20116 11.0652 4.07683C11.0646 4.95139 10.7173 5.79009 10.0997 6.40925C9.482 7.02842 8.64414 7.37761 7.76957 7.38036Z" fill="white"/>
<path d="M15.5145 10.4229L1.31396 10.4403C1.1751 10.4404 1.03765 10.4132 0.909382 10.36C0.78111 10.3068 0.664603 10.2288 0.566592 10.1304C0.46858 10.0321 0.390858 9.9153 0.338142 9.78684C0.285426 9.65837 0.25875 9.52076 0.259417 9.3819C0.258411 9.24305 0.284751 9.10537 0.337152 8.97678C0.389554 8.84819 0.466991 8.73123 0.564762 8.63263C0.662533 8.53403 0.778848 8.45573 0.90699 8.40224C1.03513 8.34876 1.17251 8.32114 1.31137 8.32097L15.512 8.30362C15.8626 8.3032 16.1986 8.16394 16.4468 7.91631C16.6951 7.66867 16.8351 7.33282 16.8364 6.98221C16.8343 6.63159 16.6934 6.29609 16.4446 6.04906C16.1957 5.80204 15.8593 5.6636 15.5087 5.66403L13.6939 5.66625C13.4129 5.66659 13.1432 5.55527 12.9443 5.3568C12.7453 5.15832 12.6334 4.88892 12.6331 4.60789C12.6329 4.46873 12.66 4.33092 12.7131 4.20229C12.7662 4.07366 12.8441 3.95676 12.9424 3.85824C13.0407 3.75972 13.1574 3.68151 13.2859 3.6281C13.4144 3.5747 13.5522 3.54713 13.6914 3.54696L15.5377 3.5447C15.9894 3.54415 16.4367 3.63256 16.8542 3.80488C17.2717 3.9772 17.651 4.23005 17.9708 4.54901C18.2905 4.86796 18.5444 5.24679 18.7177 5.66383C18.8911 6.08086 18.9806 6.52796 18.9811 6.97959C18.9817 7.4339 18.8922 7.88381 18.7179 8.30336C18.5436 8.7229 18.2879 9.10375 17.9656 9.42391C17.6433 9.74407 17.2607 9.9972 16.84 10.1687C16.4193 10.3401 15.9688 10.4265 15.5145 10.4229Z" fill="white"/>
<path d="M9.79413 18.0442L7.11014 18.0474C6.8291 18.0478 6.55941 17.9365 6.36045 17.738C6.16149 17.5395 6.04944 17.2701 6.04909 16.9891C6.04892 16.8502 6.07629 16.7127 6.12946 16.5844C6.18263 16.4562 6.26057 16.3397 6.35893 16.2417C6.45729 16.1436 6.5741 16.066 6.70256 16.0133C6.83102 15.9606 6.9687 15.9338 7.10756 15.9345L9.79155 15.9312C10.1152 15.9291 10.4249 15.799 10.6529 15.5692C10.8809 15.3395 11.0087 15.0288 11.0083 14.7051C11.0079 14.382 10.8792 14.0723 10.6505 13.8441C10.4217 13.6159 10.1117 13.4879 9.78857 13.4883L1.31769 13.4987C1.03834 13.499 0.770274 13.3884 0.572501 13.1911C0.374728 12.9938 0.263504 12.726 0.263162 12.4467C0.262156 12.3078 0.288496 12.1701 0.340898 12.0415C0.393299 11.9129 0.470737 11.796 0.568508 11.6974C0.666278 11.5988 0.782594 11.5205 0.910736 11.467C1.03888 11.4135 1.17625 11.3859 1.31511 11.3857L9.78599 11.3754C10.6701 11.3743 11.5184 11.724 12.1449 12.3478C12.7714 12.9716 13.1249 13.8184 13.1276 14.7025C13.127 15.5872 12.7758 16.4356 12.151 17.0619C11.5262 17.6882 10.6788 18.0414 9.79413 18.0442Z" fill="white"/>
</svg>
